<svg xmlns="http://www.w3.org/2000/svg" version="1" viewBox="0 0 1719.67 515.08"><path d="M216.37 1.03c-4.7 2.7-4.7 3.1-4.7 64.4 0 31.6-.2 57.5-.4 57.5-.3 0-5.8-3.1-12.3-6.9-55.2-32-91.5-52.7-95-54.3-3.8-1.7-4.6-1.7-7.7-.4-5.9 2.5-7.6 9.3-3.3 14 1.2 1.4 18.4 11.8 38.2 23.2 19.8 11.4 45.9 26.5 58 33.5l22 12.7.3 48.6.2 48.7-3.2-1.7c-1.8-.9-18.6-10.6-37.3-21.4-18.7-10.8-52.2-30.2-74.5-43-22.3-12.9-50.2-29-62-35.8-11.8-6.8-22.9-12.6-24.6-12.9-2.5-.4-3.8.1-6.2 2.3-1.7 1.6-3.4 4-3.7 5.4-1.1 5 2.4 8.2 19.6 18.2l48.2 27.8c17.4 10.1 31.4 18.7 31 19-.5.4-21.7 12.7-47.3 27.4-25.6 14.8-47.5 27.7-48.7 28.8-6.6 6.1-.5 17.6 8.1 15.4 1.3-.3 25.5-13.9 53.8-30.2 28.2-16.4 52.1-29.9 53-30.2 1.1-.2 15.6 7.5 36 19.4 18.9 10.8 37.5 21.6 41.5 23.8 4 2.3 7.1 4.5 7 4.9-.1.5-6.3 4.3-13.7 8.6-7.4 4.3-38.7 22.3-69.5 40.1-30.8 17.8-68.8 39.7-84.5 48.7-15.7 9-29.7 17.7-31.2 19.3-3.8 4.2-3.8 8.7.1 12.5 4.7 4.4 7.7 3.4 32.1-10.7 11.8-6.9 40.9-23.7 64.5-37.3 23.7-13.6 58.3-33.7 77-44.5 18.7-10.8 34.1-19.7 34.2-19.6.8.5.6 95.7-.2 96.5-.6.5-22.6 13.4-49 28.6-68.4 39.5-68.4 39.5-70 41.8-1.8 2.5-1.9 7-.4 9.9.6 1.1 2.6 2.6 4.5 3.4 3.1 1.3 3.9 1.3 7.7-.4 3.5-1.6 39.8-22.3 95-54.3 6.5-3.8 12.2-6.9 12.6-6.9.5 0 .9 2.1.9 4.7 0 2.7 0 28.5.1 57.4l.1 52.6 2.5 2.7a9 9 0 0 0 13 0l2.5-2.7v-57.3c0-35.1.4-57.4.9-57.4.6 0 6.3 3.1 12.8 6.9 55.2 32 91.5 52.7 95 54.3 3.8 1.7 4.6 1.7 7.7.4 1.9-.8 3.9-2.3 4.5-3.4 1.5-2.9 1.4-7.4-.4-9.9-1.6-2.3-1.7-2.3-70-41.8-26.4-15.2-48.6-28.2-49.3-28.9-.9-.9-1.2-11.7-1-49.3l.3-48.1 12.5 7.2c6.9 4 33.4 19.3 59 34.1 25.6 14.7 62 35.8 81 46.8 47 27.2 48.7 28.1 52.7 26.7 6.2-2.2 8.3-9.7 4.1-14.4-1.9-2-59-35.7-90.1-53-3.8-2.1-6.5-4.2-6-4.6.4-.4 21.7-12.7 47.3-27.4 25.6-14.8 47.5-27.7 48.7-28.8 6.6-6.1.5-17.6-8.1-15.4-1.3.3-25.5 13.9-53.8 30.2-28.2 16.4-52 29.9-52.9 30.1-.9.3-18.2-9.1-38.5-20.8-20.3-11.7-38.8-22.4-41.2-23.7-3.6-2-4.1-2.7-3-3.7.7-.7 18-10.9 38.3-22.6 20.4-11.7 54.3-31.2 75.5-43.5 21.2-12.2 48.6-28 61-35.1 19.1-11 22.8-13.5 24.3-16.5 1.4-2.8 1.5-4.1.6-6.6a9.23 9.23 0 0 0-8.6-6.2c-1.9 0-12.7 5.6-30.3 15.8-35.9 20.7-84 48.4-132.7 76.5-21.6 12.5-39.5 22.7-39.8 22.7-.3 0-.5-21.9-.5-48.8v-48.7l24.3-13.9c80.6-46.4 93.4-54 95.5-56.2 4.2-4.7 2.5-11.5-3.4-14-3.1-1.3-3.9-1.3-7.7.4-3.5 1.6-41 23-95.7 54.7l-12.5 7.3-.5-58.6c-.5-61.5-.5-61.8-5-64.2-2.4-1.3-7-1.2-9.3.1zm644.1 117.5c-3.1 1.6-5.8 6.1-5.8 9.4 0 3.6 3.1 9 6.1 10.5 7.9 4.2 17.9-1.7 17.9-10.5 0-8.3-10.4-13.7-18.2-9.4zm-251.5 58.9c-12.5 2.2-27.6 8.1-35.5 13.7-2.7 1.8-2.8 2.4-2.8 9.9 0 4.3.2 7.9.4 7.9s4.7-2.9 9.9-6.3c20.5-13.8 42.7-17.4 58.3-9.7 9.2 4.5 14.7 11.9 18 24.3 1.8 6.8 3 22.7 1.7 22.7-2.9 0-54.4 8.2-59.2 9.4-14 3.6-25.4 9.7-32.3 17.4-15.5 17.2-14.1 46.6 2.9 62.2 9.1 8.3 19.7 12 34.8 12 10.4 0 17.2-1.6 26.3-6.1 8.2-4 19.5-14.7 24.5-23l3.7-6.4v31.5h14v-56.5c0-47.7-.2-57.8-1.6-64.2-6.2-30.3-29.9-44.8-63.1-38.8zm50.7 87c0 29-10.3 48.6-30.8 58.8 0 0-4.27 2.44-8.8 3.59-4.69 1-12.3.61-12.3.61-11.5 0-13.1-.2-18.2-2.6-10.9-5.1-16.9-14.1-17.7-26.6-1.3-20.9 8.7-32.2 33.3-37.3 6.5-1.4 48.6-7.7 52.3-7.9 2.2-.1 2.2.1 2.2 11.4zm107.5-87.6c-30.5 4.9-53.7 26.3-62.7 57.6-2 7.1-2.3 10.2-2.3 27 0 21.3 1.3 28.2 7.9 41.3 9.8 19.5 24.2 31.2 44.6 36.3 7.2 1.8 10.3 2.1 22 1.6 14.6-.6 21.5-2.1 31.6-6.8l6.4-3v-14.8l-7.3 3.9c-10.2 5.5-20.6 8-33.1 8-18 0-29.1-4.5-40.2-16.3-12.4-13.1-17.7-28.4-17.7-51.2 0-24.9 6.9-42.6 22.2-56.8 17.3-15.9 45-19.2 69-8.1 4.1 1.9 7.5 3.4 7.7 3.4.2 0 .4-3.4.4-7.5 0-7.3-.1-7.5-3.1-9-8.9-4.7-32.9-7.6-45.4-5.6zm214-.2c-16 2.1-30.7 11.5-40.1 25.7l-3.9 5.9-.3-14.1-.3-14.2h-13.9v157h14v-47.9c0-53.9.4-58.4 6.6-70.9 9.5-19.4 28.2-30.4 48.9-28.9 18.6 1.4 29.7 11.5 35.2 31.9 1.4 5.5 1.7 13.6 2 61l.4 54.8h13.9v-53.1c0-33.3-.4-55.6-1.1-60.1-4-25.6-17.5-41.9-38.6-46.3-6.4-1.4-16-1.7-22.8-.8zm161 .2c-30.1 4.8-51.3 24.2-59.7 54.6-1.9 7-2.2 10.6-2.2 27.5-.1 17.5.1 20.3 2.2 27.5 8.3 28.9 27.5 47.6 54.1 53 12.8 2.6 31.8 1.7 43-2 16.7-5.7 30.1-17.3 38.5-33.5 5.6-10.7 8.3-20.4 9.7-34.6 2-19.1-1-38.7-8.1-54-8.9-19.3-23.4-31.6-43.5-36.9-6.9-1.9-26.7-2.8-34-1.6zm26.9 13.6c19.6 4.2 33.4 16.7 39.9 36.5 5.3 15.7 6 39.3 1.7 56.7-4.9 20.4-17.3 35.2-34.6 41.4-8.4 3-28.3 3.8-37.4 1.5-30.7-7.7-48-37.9-44-76.6 1.7-16.9 4.7-26.3 11.9-36.9 12.9-19 37.6-27.9 62.5-22.6z"/><path d="M1671.67 136.43l-6.5 2.2-.3 20.6-.2 20.7h-29v13h28.9l.3 60.7s-.13 54.5.85 60.26c.97 5.54 1.85 6.54 1.85 6.54 3.3 8 10.8 15.6 18 18 7.7 2.5 19.1 2.3 27.4-.4l6.7-2.3v-6.4c0-3.5-.1-6.4-.2-6.4-.2 0-2.8 1-5.8 2.2-7 2.7-19 3-23.6.5-4.1-2.1-8-6.8-9.6-11.5-.9-2.7-1.3-18.8-1.6-62.5l-.3-58.7h41.1v-13h-41l-.2-22.8-.3-22.9zm-353.3 41c-17.2 3.5-33.5 15.1-42.5 30.4l-2.7 4.6-.3-16.3-.2-16.2h-14v230h14l.2-50.2.3-50.1 3.6 5.4c11.3 16.9 25.1 24.7 45.6 25.6 21 1 35.2-4.3 48.8-18.1 9.2-9.4 13.5-16.1 18.1-28.4 4.4-12 6.4-24.8 6.4-41.6 0-23.2-4.7-40.1-15-53.7-13.8-18.4-37-26.4-62.3-21.4zm22.3 12.5c27.7 5.3 44 35.7 40 75-2.4 24.8-11.5 43.8-26.1 54.5-9.1 6.7-17.2 8.9-30.7 8.3-16.7-.8-27.7-6.2-37.5-18.3-10.1-12.6-12.7-21-13.4-43.7-.8-25.7 1.8-38.7 10.8-52.5 12.2-18.7 34-27.6 56.9-23.3zm222.3-13c-17.4 3.2-32.6 15.4-36.9 29.5-1.8 6.2-1.8 18.8.1 25.1 3.8 12.8 13.3 20.8 40.4 34.1 16.7 8.2 20.2 10.3 25.2 15.2 6.1 6.2 7.9 10.2 7.9 18.2 0 13.3-7.3 23.1-20 27-14.9 4.5-35.5 1-50.4-8.5l-5.6-3.6v16.8l3.7 2.2c8.1 4.8 18.1 7.3 31 7.8 19.8.7 33.5-3.5 43.7-13.5 6.1-6.1 9.1-11.2 11.2-19.3 3.1-12.1.4-25.3-6.8-33.5-5.8-6.5-12.8-11-33.8-21.5-10.2-5-20.6-10.7-23.2-12.6-10.1-7.5-13.4-22.6-7.5-34.6 4.9-10.1 14.7-15.6 29.2-16.5 9.9-.7 21.5 2 31.7 7.2l6.8 3.4v-16l-4.7-2c-2.7-1.1-7.3-2.7-10.3-3.5-6.8-1.9-24.8-2.6-31.7-1.4zm-90.4 1.9c-12.9 4.1-23.5 15.2-29.4 30.5l-2.4 6.1-.1-17.8v-17.7h-14v157h13.8l.5-47.8c.5-51 .6-52.6 6-67.4 4.8-13.3 13.5-24.1 23.2-28.8 7-3.4 18-3.9 25.3-1.2l5.2 2v-14.6l-4.4-1.1c-6.5-1.6-17.3-1.3-23.7.8z" fill-opacity=".45"/><path d="M859.67 258.43v78.5h14v-157h-14v78.5z"/></svg>